<?xml version="1.0" encoding="UTF-8"?> <svg xmlns="http://www.w3.org/2000/svg" id="Layer_1" data-name="Layer 1" viewBox="0 0 287.75 182.96"><defs><style>.cls-1{fill:#c73927;}.cls-2{fill:#436044;}</style></defs><title>epler</title><path class="cls-1" d="M82.36,88c6.32-6.68,16.15-11.22,28.41-13.13A83.23,83.23,0,0,1,126.71,74l.24-.28C120.26,55.23,106.6,38.05,80,34.09,49.23,29.51,38.45,63.73,38.45,63.73s-56.2,16.8-32.71,60,70.35,38.94,83.29,37a10.63,10.63,0,0,0,3-1C82,149,75.89,135.67,73.83,120.06,72.07,106.65,74.93,95.88,82.36,88Z"></path><path class="cls-2" d="M31.39,51.56s11.52-19.8,10.06-31.42S22.09,0,22.09,0s-8.51,14.91-8,26S31.39,51.56,31.39,51.56Z"></path><path class="cls-1" d="M232.82,40.17S198.63-7.5,165.39,28.8a70.47,70.47,0,0,0-16.66,29.89,34.27,34.27,0,0,1,28.81,2.76c17.83,10.08,27.93,25.46,30,45.72,1.49,14.54-1.48,29.06-5.24,40.27a10.19,10.19,0,0,0,1.86.48c6.69,1,81.37-18.23,70.22-78.1C268.69,39.22,232.82,40.17,232.82,40.17Z"></path><path class="cls-2" d="M260.59,4.81C250.3,8.87,242,29.53,242,29.53s22.48,4.44,33-.73S287.75,3.94,287.75,3.94,270.88.75,260.59,4.81Z"></path><path class="cls-1" d="M204.57,107.48c-2-19.24-11.57-33.85-28.5-43.42a31.35,31.35,0,0,0-28.18-1.81c-11.56,4.62-19.21,14.06-19.34,14.22l-.46.58,0,0-.8-.06c-.06,0-1.33-.09-3.45-.09-8,0-28,1.26-39.28,13.17-6.77,7.15-9.36,17.09-7.72,29.56a71.37,71.37,0,0,0,17.9,38.62c9.46,10.32,23.77,19.67,45.42,24.54.11,0,7,1.56,18.61-6.48l.78-.54,2.58,1.5,2.31-2.39,2.42,1.87.47-2.8,4.49.2-.51-3.76,1.63-.08c.13,0,12.94-.67,17.58-4.73,1.48-1.3,5.63-8.83,9.1-19.43C203.14,135.37,206,121.34,204.57,107.48Z"></path><path class="cls-2" d="M145.8,35.91C148.6,24.53,135,10.17,135,10.17S121.66,21,118.15,31.53s7,30.11,7,30.11S143,47.28,145.8,35.91Z"></path></svg> 